<?xml version="1.0" encoding="UTF-8"?>
<svg viewBox="0 0 128 128" xmlns="http://www.w3.org/2000/svg">
 <defs>
  <linearGradient id="a" x1="-2.1762" x2=".77776" y1="-.28806" y2=".6498">
   <stop stop-color="#fff" offset="0"/>
   <stop stop-color="#fff" stop-opacity="0" offset="1"/>
  </linearGradient>
 </defs>
 <g fill-rule="evenodd">
  <path d="m89.504 38.9c1.8273-12.544-5.1044-29.561-24.364-29.93-24.992-0.47957-29.639 17.526-28.372 30.969 1.5434 16.372 49.525 21.004 52.736-1.0381z"/>
  <g stroke="#000">
   <path d="m3.6004 118.62c2.7927-7.7114 4.0292-22.026 13.643-26.806l44.594-9.5409 46.574 8.8529c8.1954 2.9422 12.069 18.888 15.987 27.923-2.5522 1.8322-4.752 4.5457-7.7871 5.1707h-105.68c-3.432-1.2735-5.1702-3.5632-7.3304-5.5996z"/>
   <g fill="#fff">
    <path d="m48.703 72.396c0.23771 5.7693-1.1298 9.0943-3.8326 13.984 10.524 19.343 37.801 9.3719 37.089-0.54528l-3.0181-16.494-30.238 3.0543z"/>
    <path d="m87.177 41.413c-0.58198 9.119-0.8372 20.238-2.8797 29.357 0 0-9.2868 8.4415-14.47 10.742-5.1835 2.301-6.6343 1.989-11.519-0.071983-4.8844-2.061-16.198-10.095-16.198-10.095-4.8626-19.716-6.5261-40.38 15.118-51.386l6.4084 7.611c2.3711 2.816 12.782 7.1941 16.715 3.4393 3.104-2.9635 4.9992 7.9036 6.8255 10.403z"/>
   </g>
  </g>
  <path d="m40.984 42.976c-0.80594 9.1404 0.52962 17.872 2.5538 27.198 5.5787 4.5072 9.8074 10.453 21.452 8.0741 3.9872-0.90865 2.5088-2.8146 4.7988-3.9657-13.766 4.0898-16.011 1.1977-23.107-7.13l-4.6841-27.223-1.0141 3.0462z" fill="url(#a)"/>
 </g>
</svg>
